<?xml version="1.0" encoding="UTF-8"?>
<svg id="bird" xmlns="http://www.w3.org/2000/svg" viewBox="0 0 503.43 500.69">
  <path d="M390.65,500.69c-16.33-30.02-31.3-60.74-50.46-89.23-14.19-21.09-26.31-43.57-39.63-65.25-1.98-3.21-5.24-5.89-8.41-8.07-15.62-10.69-31.58-20.9-47.06-31.78-7.11-5-13.34-11.23-20.1-16.74-2.97-2.42-6.25-4.46-11.25-7.98,1.75,6.77,3.31,11.16,3.94,15.68.65,4.63.75,9.42.33,14.08-.15,1.69-2.29,4.11-3.91,4.49-1.62.38-4.3-.92-5.5-2.34-1.83-2.15-2.85-5.01-4.09-7.63-3.19-6.71-7.99-11.83-13.87-16.47-11.61-9.17-23.84-16.25-38.84-18.31-6.69-.92-8.64-7.41-4.07-12.27,5.01-5.33,10.41-10.67,18.9-6.18,1.1.58,2.69.22,4.46-1.57-4.06-1.08-8.08-2.45-12.21-3.17-4.2-.73-8.1-1.65-8.79-6.58-.6-4.27,2.17-6.63,5.65-8.4.92-.47,1.6-1.39,3.4-3-2.42-2.68-4.42-5.6-7.07-7.73-14.39-11.57-25.49-25.72-34.75-41.65-3.96-6.81-9.3-13.07-15.01-18.54-7.42-7.11-16.3-10.87-25.19-6.23-1.97,3.94-2.69,7.89-5.04,9.55-3.97,2.8-7.63-.36-10.43-3.28-6.67-6.97-11.49-14.95-12.56-24.83-.27-2.49-.55-5.09-1.47-7.38-5.73-14.23-4.13-27.83,3.61-40.72,5.4-8.98,10.51-18.15,19.63-24.4,6.16-4.22,9.17-11.12,11.4-18.21,1.15-3.63,2.61-7.16,3.94-10.74,7.61,1.59,4.31,7.58,6.93,11.56,7.71-7.69,11.79-15.88,8.93-27.04-1.5-5.85-1.52-12.09-2.21-18.15h4.37c13.15,16,13.59,35.66,1.13,51.97-2.59,3.39-5.29,6.71-8.65,10.96,9.68,4.14,18.04,8.22,26.75,11.3,11.48,4.06,22.08,9.27,30.98,17.81,2.19,2.1,5.48,3.22,8.45,4.29,16.06,5.78,32.4,10.87,48.23,17.22,19.46,7.81,33.61,22.72,47.36,37.9,23.98,26.48,46.19,54.37,66.89,83.49,15.19,21.36,30.73,42.43,41.97,66.33,10.3,21.89,26.63,38.93,45.64,53.52,9.57,7.34,18.65,14.98,25.24,25.41,2.63,4.17,7.58,6.8,10.86,10.66,3.96,4.63,7.8,9.53,10.7,14.85,2.7,4.96.92,10.1-2.91,14.02-3.57,3.65-7.92,2.94-12.18,1.02-7.63-3.44-15.32-6.74-22.88-10.33-17.76-8.42-35.46-16.97-53.2-25.44-1.52-.72-3.16-1.19-6.1-2.27,1.01,2.63,1.36,3.9,1.96,5.06,14.77,28.42,29.88,56.69,41.53,86.61.92,2.36,2.42,4.9,2.21,7.22-.63,6.86,3.15,11.73,6.48,16.89h-24.05Z"/>
</svg>