<?xml version="1.0" encoding="UTF-8"?>
<svg id="cat" xmlns="http://www.w3.org/2000/svg" viewBox="0 0 503.43 500.69">
  <path d="M423.28,449.92c-4.4-1.95-9.24-3.27-13.11-5.98-8.54-5.97-8.18-14.4.32-20.31,10.24-7.11,11.22-11.79,2.55-20.66-13.51-13.82-27.69-27-43.29-42.1-2.6,9.31-2.72,18.02-6.98,23.45-13.5,17.19-28.2,33.5-43.15,49.48-8.19,8.76-18.98,6.97-28.06,1.71-4.11-2.38-8.31-9.15-7.89-13.48.4-4.09,6.3-9.97,10.67-10.92,14.34-3.12,18.26-15.48,24.84-25.39,1.04-1.57-1.13-6.39-3.05-8.64-11.71-13.66-23.64-27.14-35.86-40.34-1.96-2.12-5.7-3.48-8.68-3.61-16.19-.7-32.42-.53-48.6-1.45-8.47-.48-13.91-.07-14.77,10.74-.98,12.21-4.06,24.28-6.69,36.31-4.26,19.48-14.12,35.96-28.23,49.89-6.77,6.68-14.52,8.21-22.64,2.3-7.76-5.65-8.08-14.81-1.01-21.46,14.69-13.82,17.84-22.76,14.89-44.92-17.98,20.85-34.34,41.47-52.63,60.2-6.75,6.92-17.64,11.06-27.38,13.44-9.22,2.26-17.26-3.42-20.7-12.73-2.57-6.94-.58-12.29,6.92-16.15,6.61-3.4,13.93-7.8,17.76-13.79,14.55-22.77,27.21-46.68,24.21-75.1-.59-5.57-2.95-12.79-7.04-15.85-24.99-18.74-34.98-44.84-37.25-74.35-.85-11.12-4.85-13.34-14.66-11.94-15.27,2.18-28.81-2.5-39.87-13.11-7.79-7.47-9.71-15.96-3.51-26.13,2.74-4.49,4.48-11.1,3.42-16.05-1.67-7.8.51-12.29,6.26-17.02,6.75-5.55,12.91-11.9,18.74-18.42,1.61-1.8,1.87-5.57,1.48-8.26-.89-6.07-3.16-11.98-3.68-18.06-.3-3.48.69-8.79,3.02-10.32,2.47-1.61,8.52-1.14,10.78.9,9.4,8.45,17.81,17.97,26.88,26.8,4.16,4.04,8.79,7.68,13.56,10.99,16.22,11.28,32.44,22.59,49.03,33.3,4.27,2.76,9.84,3.95,14.98,4.8,5.09.84,11-1.15,15.5.68,12.78,5.19,24.19,2.6,36.67-1.68,24.82-8.51,50.22-11.28,76.67-6.05,39.64,7.84,79.62,14.03,119.48,20.77,19.14,3.24,41.59-5.6,49.53-20.22,2.19-4.02,3.48-11.1,1.4-14.41-7.57-12.09-15.57-24.35-25.59-34.36-13.01-13-28.62-23.37-42.02-36.02-4.36-4.12-8.69-13.32-6.88-17.58,1.96-4.61,11.14-8.57,17.11-8.5,8.72.1,18.73,2.05,25.84,6.76,18.58,12.33,37.76,24.74,53.35,40.44,41.36,41.66,32.15,102.37-23.45,133.86-7.24,4.1-15.3,6.74-22.86,10.32-18.63,8.84-24.79,22.01-19.11,41.63,8.07,27.87,15.27,55.93,34.81,79.12,5.02,5.96,6.69,16.63,6.26,24.95-1.19,22.93-.92,47.02-23,62.49h-5.29Z"/>
</svg>