<?xml version="1.0" encoding="UTF-8"?>
<svg id="dog" xmlns="http://www.w3.org/2000/svg" viewBox="0 0 503.43 500.69">
  <path d="M61.19,482.86c-5.25-20.22-8.64-39.98-5.57-60.62,3-20.18,5.46-40.45,7.48-60.75.46-4.63-.94-9.99-3.04-14.24-17.25-34.92-16.37-69.05,3.49-102.64.75-1.26,1.13-2.75,2.11-5.22-5.94-7.01-12.17-14.36-18.13-21.39-14.46,8.13-21.82,5.98-27.23-7.09-6.1-14.74-5.99-30.19-3.8-45.68.69-4.92,2.15-9.73,3.46-15.51-9.31-13.73-5.39-27.41,2.05-41.45,11.04-20.83,25.58-36.7,50.1-40.84,2.04-.34,3.72-2.84,6.17-4.81-3.13-2.96-5.73-5.41-8.18-7.72,2.04-9.34,8.6-13.82,16.03-14.79,11.21-1.47,23.4-3.37,33.84-.4,9.86,2.81,19.05,4.44,29.03,3.61,2.94-.24,5.95.45,7.88.62,29.62,20.22,30.28,47.35,20.99,79.32-4.13-2.12-7.98-3.08-10.37-5.49-11.31-11.37-24.19-17.32-40.1-11.73-18.15,6.37-28.85,19.45-30.63,38.68-.47,5.04.8,11.53,3.81,15.36,8.35,10.62,18.19,19.43,32.51,22.35,16.53,3.37,32.91,7.72,49.08,12.56,18.11,5.42,35.69.82,53.3-1.78,11.75-1.74,23.34-5.11,34.71-8.66,4.42-1.38,8.06-5.25,10.32-6.79,2.09-9.45,3.63-16.73,5.32-23.98,3.14-13.42,9.23-25.82,11.15-39.86,2.15-15.79,15.98-24.66,27.11-34.58,3.32-2.96,7.24-5.27,10.86-7.86,2.66-20.31,18.55-25.56,34.43-30.58,3.26-1.03,6.93-.66,10.39-1.14,12.21-1.69,22.83-5.71,29.74-17.15,2.8-4.63,6.06-11.1,14.84-7.53.63,8.29,1.29,16.91,2.05,26.86,9.64-8.21,12.72-26.13,29.8-17.29.53,1.79,1.28,2.88,1.03,3.65-6.64,20.43-6.13,39.54,5.53,58.86,4.41,7.31,2.62,18.37,3.83,29.23,9.78,4.56,20.48,9.55,30.77,14.35,3.68,28.54-7.74,39.67-44.26,43.84-5.44,5.77-2.35,11.78-.48,17.98,4.04,13.33,9.31,26.54,11.18,40.2,3.04,22.29-.71,43.82-15.06,62.28-2.74,3.53-5.51,7.85-9.29,9.61-11.22,5.25-16.8,14.91-21.79,25.16-5.85,12.01-15.22,18.42-27.92,22.77-19.79,6.77-33.63,19.88-36.19,42.44-1.63,14.34-5.28,28.45-6.73,42.8-.59,5.88,1.91,12.2,3.59,18.16,2.08,7.38,4.75,14.59,7.73,23.56-16.94,4.94-31.2,4.08-47.67-1.24-1.38-9.94-3.57-20.07-4.04-30.28-1.05-22.59-6.68-44.11-12.83-66.69-27.79-.37-53.85-5.35-75.46-22.12-7.67,2.67-14.2,4.93-20.91,7.27-18.79,35.56-52.35,44.15-89.32,47.75-6.92,8.94-10.57,19.86-11.69,31.26-.47,4.73,1.51,11.15,4.75,14.46,5.36,5.47,6.51,10.78,4.66,17.42-13.49,12.32-28.61,8.29-44.43,5.47Z"/>
</svg>