<?xml version="1.0" encoding="UTF-8"?>
<svg id="Layer_1" xmlns="http://www.w3.org/2000/svg" viewBox="0 0 412.88 498.9">
  <path d="M331.59,8.25c-5.68,5.64-9.75,11.57-15.36,14.9-20.24,12.03-36.66,28.48-53.54,44.43-7.04,6.66-8.08,14.47-4.64,23.56,5.06,13.37,9.2,27.1,14.2,40.5,8.01,21.47,3.45,39.3-14.51,53.63-1.58,1.26-3.03,2.68-3.81,5.99,5.75-1.65,11.71-2.78,17.21-5.04,25.17-10.35,47.97-24.29,68.13-42.91,17.92-16.55,41.58-22.12,63.96-29.82,1.71-.59,3.92.27,9,.75-4.37,3.72-6.52,6.52-9.36,7.83-29.69,13.67-39.4,40.22-43.49,69.42-2.19,15.68-2.51,31.96-1.14,47.74,2.42,27.78,14.36,37.9,42.02,38.86,2.75.09,5.49.34,10.31.66-3.07,2.68-4.53,5.01-6.39,5.39-12.01,2.46-23.94,4.41-36.45,2.2-26.38-4.67-51.71-11.62-74.79-25.96-8.23-5.11-17.83-8.13-27.03-11.51-3.61-1.32-7.81-1.01-15.23-1.82,13.19,16.12,10.76,31.6,7.64,47.45-2.28,11.6-3.18,23.48-4.59,35.24-1.59,13.2,2.02,25.26,9.37,35.98,9.75,14.23,20.86,27.19,35.25,37.25,10.38,7.25,20.1,15.51,29.74,23.75,4.78,4.08,8.73,9.12,12.41,14.46-28.17-12.18-56.6-23.52-80.75-42.59-19.9-15.71-38.59-33-58.82-48.24-13.96-10.51-29.56-18.88-44.62-27.86-3.36-2.01-7.56-2.61-14.19-4.78,3.17,4.24,4.52,6.37,6.18,8.22,14.5,16.13,28.68,32.58,43.8,48.13,5.82,5.98,13.32,10.83,20.87,14.54,20.9,10.27,42.19,19.73,63.38,29.39,15.76,7.19,19.15,9.56,26.57,20.74-28.76-6.26-53.03-18.01-78.02-28.88,24.75,33.17,54.99,60.65,89.93,83.29-.45.89-.9,1.77-1.35,2.66-2.45-.17-5.34.45-7.29-.63-11.73-6.5-25.01-11.54-34.5-20.52-24.63-23.33-47.48-48.52-71.23-72.79-5.11-5.22-10.58-10.27-16.59-14.38-28.64-19.56-53.63-42.63-73.53-71.34-6.38-9.21-15.16-17.21-24.12-24.09-22.06-16.94-45-32.73-67.33-49.32-17.38-12.91-16.4-21.82,2.72-32.12,4.29-2.31,8.43-5.1,12.16-8.24,14.09-11.85,28.1-23.81,41.92-35.97,16.14-14.2,34.48-25,53.72-34.12,42.78-20.27,81.89-46.18,119.16-75.17,18.41-14.32,37.39-27.93,56.47-41.34,12.42-8.73,15.06-9.05,26.56-7.49ZM135.38,329.87c.44-.53.88-1.05,1.32-1.58-2.24-2.03-4.49-4.05-6.73-6.08-.27.29-.54.58-.81.88,2.07,2.26,4.14,4.52,6.22,6.78Z"/>
</svg>