<?xml version="1.0" encoding="UTF-8"?>
<svg id="Layer_1" xmlns="http://www.w3.org/2000/svg" viewBox="0 0 390.74 220.41">
  <defs>
    <style>
      .cls-1 {
        fill: #372c30;
      }

      .cls-2 {
        fill: #342729;
      }

      .cls-3 {
        fill: #45393e;
      }

      .cls-4 {
        fill: #493c41;
      }

      .cls-5 {
        fill: #473b40;
      }

      .cls-6 {
        fill: #473a40;
      }

      .cls-7 {
        fill: #35282b;
      }

      .cls-8 {
        fill: #4c3e44;
      }

      .cls-9 {
        fill: #45383d;
      }

      .cls-10 {
        fill: #4d3e45;
      }

      .cls-11 {
        fill: #43383e;
      }

      .cls-12 {
        fill: #35292b;
      }

      .cls-13 {
        fill: #19191d;
      }

      .cls-14 {
        fill: #18181c;
      }

      .cls-15 {
        fill: #f4afb2;
      }

      .cls-16 {
        fill: #3a343b;
      }

      .cls-17 {
        fill: #624d4f;
      }

      .cls-18 {
        fill: #36292b;
      }

      .cls-19 {
        fill: #43373c;
      }

      .cls-20 {
        fill: #38353b;
      }

      .cls-21 {
        fill: #dc8890;
      }

      .cls-22 {
        fill: #3f3537;
      }

      .cls-23 {
        fill: #3e3033;
      }

      .cls-24 {
        fill: #1f1e24;
      }

      .cls-25 {
        fill: #4a3d43;
      }

      .cls-26 {
        fill: #19181c;
      }

      .cls-27 {
        fill: #4a3c42;
      }

      .cls-28 {
        fill: #3f373d;
      }

      .cls-29 {
        fill: #504f53;
      }

      .cls-30 {
        fill: #44383d;
      }

      .cls-31 {
        fill: #37343b;
      }

      .cls-32 {
        fill: #36292c;
      }

      .cls-33 {
        fill: #f8b2b4;
      }

      .cls-34 {
        fill: #483c42;
      }

      .cls-35 {
        fill: #45393f;
      }

      .cls-36 {
        fill: #4b3d43;
      }

      .cls-37 {
        fill: #5c5c5f;
      }

      .cls-38 {
        fill: #35282a;
      }

      .cls-39 {
        fill: #38333a;
      }

      .cls-40 {
        fill: #3b353c;
      }

      .cls-41 {
        fill: #f6b1b3;
      }

      .cls-42 {
        fill: #554546;
      }

      .cls-43 {
        fill: #493c42;
      }

      .cls-44 {
        fill: #da979a;
      }
    </style>
  </defs>
  <path class="cls-10" d="M264.68,0c2.35,0,4.69,0,7.04.01,3.09.67,6.17,1.32,9.26,2.01,4.92,1.1,10.06,1.93,10.87,8.38.04.31.26.87.38.87,4.23-.09,7.99,4.11,11.73,2.83,6.03-2.05,10.84-.31,15.57,2.59,2.18,1.34,4.3,2.06,6.75,2.71,12.78,3.4,26.16,4.6,38.04,11.32,10.91,6.18,18.92,14.51,22.83,26.53.88,2.7,1.82,5.44-.12,8.11-1.47,2.03-.29,3.81.49,5.61,3.79,8.74,3.98,17.75,1.91,26.89-.68,2.99-1.55,6.03-5.65,5.64-2.32-.22-2,1.14-1.58,2.51,1.63,5.3,1.31,10.86,2.15,16.28.54,3.48,1.47,7.38-2.61,9.87-1.48.91-.67,2.39-.31,3.64,2.59,9.12,2.81,18.34,1.32,27.66-.3,1.87-.26,3.85-2.55,4.3-2.49.49-4.11-.87-5.11-3.06-1.13-2.47-1.54-5.37-4.35-7.38-2.17,4.6.06,8.77.28,12.91.11,2.17,1.2,4.43-1.17,5.8-2.69,1.55-4.17-.87-5.93-2.29-2.1-1.7-3.12-6.43-7.26-2.72-2.3-.47-2.95-2.5-3.92-4.2-4.65-8.05-9-16.27-13.52-24.39-1.04-1.86-1.86-3.79-4.55-4.06-2.8-.28-3.44-2.81-4.13-5.04-2.07-6.65-3.62-13.46-5.93-20.05-.73-2.08-1.45-3.89-3.82-4.8-2.62-1.01-3.15-3.7-3.84-6.08-3.79-13.09-6.61-26.4-9-39.8-.63-3.53.16-8.45-6.26-6.66-.5.14-.91-.86-1.18-1.48,1.43-4.84,2.31-9.92,5.17-14.2,1.39-2.08,3.27-4.14,6.15-3.29,2.54.75,3.42,3.2,3.6,5.55.32,4.15,1.25,8.25,1.24,12.39-.02,10.69.93,21.24,3.55,31.62.29,1.15.35,2.3.14,3.13,3.03-6.47,2.67-14,4.43-21.08.76-3.08.75-7.96,4.77-7.68,4.4.31,3.11,5.13,3.11,8.21,0,5.65-1.17,11.23-1.89,16.82-1.13,8.74,1.89,17.11,2.26,25.71.05,1.13.07,2.29.29,3.42-.97-6.78-.74-13.61-.64-20.42.08-5.76,2.35-10.58,4.74-9.91,4.83,1.34,3.94,5.95,4.23,9.55.54,6.78-1.31,13.59.02,20.39-.27,8.55,1.82,16.68,3.94,23.24-3.75-9.99-4.53-21.92-4.29-34,.53-1.66,1.33-3.44,3.34-2.84,2.12.64,2.77,2.83,2.86,4.85.3,6.82,1.83,13.43,3.19,20.07,1.6,7.81,4.12,15.32,8.21,22.21,1.56,3.29,1.48,6.97,2.19,10.25-.15-17.44-2.37-34.64-10.64-50.54-.53-1.92-1.75-3.6-1.94-5.63-.16-1.67-.42-3.55,1.5-4.31,1.65-.65,2.88.67,3.79,1.81,3.05,3.82,4.76,8.41,6.19,12.95,3.02,9.6,7.97,18.18,13.07,26.71.5.84.95,1.94,2.17.73.54-3.44-.99-6.45-2.02-9.5-1.91-5.66-4.05-11.24-6.35-16.76-.83-1.98-1.82-3.96-1.06-6.23.61-1.27,1.67-1.84,3.02-1.93,2.56-.88,4.02,3.98,6.92,1.3,1.3-1.06.95-2.3.5-3.63-4.97-14.51-12.7-27.37-23.09-38.64-.32-.35-.85-.5-1.28-.77-1.05-.79-1.95-1.68-2.09-3.08-.01-1.12.4-2,1.43-2.53,4.56-.91,7.48,2.06,10.49,4.61,5.23,4.42,9.28,9.97,14.03,14.86,1.27,1.3,2.45,2.72,4.89,4.36-1.38-6.2-3.32-11.28-6.3-15.94-3.8-5.96-8.64-10.89-14.52-14.88-2.14-1.46-6.12-2.94-4.16-6.22,1.96-3.29,5.6-1.49,8.57-.34,3.19,1.23,5.1,4.79,9.45,5.1-2.15-4.7-5.93-7.18-9.66-9.32-6.76-3.87-13.64-7.68-21.79-7.93-1.99-.06-3.93-.69-5.81-1.38-4.75-1.73-9.54-2.78-14.66-1.93-3.15.52-5.7-.65-6.65-3.87-.8-2.72-2.65-3.69-5.17-3.79-2.66-.1-4.29,1.53-5.46,3.68-2.45,4.5-2.13,9.33-1.37,14.12.52,3.22.25,6.29-.77,9.33-.45,1.34-1.19,2.05-2.51.77-3.26-7.98-2.98-16.5-3.73-24.84-1.15-1.53,1.1-6.31-3.95-4.13-3.3,2.62-5.78,5.96-8.2,9.34-3.12,4.37-6.35,8.75-11.18,11.23-8.67,4.45-12.95,13.63-20.86,18.84-.8.53-1.75,1.47-1.64,2.41.61,5.42-3.61,6.97-7.09,9.11-2.83,1.74-5.91,3.13-7.96,5.9-1.16,1.57-2.94,1.21-4.51,1.53-4.85,1.24-6.28,6.11-9.57,9.02-1.12.99-2.1,2.13-3.2,3.14-3.57,3.29-4.89,3.06-8.67-2.33-1.08,1.51-1.96,2.92-3.03,4.17-.97,1.13-2.15,2.32-3.84,1.6-1.91-.81-1.86-2.68-1.66-4.3.74-5.78,4-10.43,7.06-15.16.22-.45.63-.91-.1-1.29-.87.45-1.74.9-2.6,1.35-1.07.57-1.65,2.67-3.13,1.66-1.5-1.02-1.27-2.85-.87-4.57,1.98-8.63,7.91-14.8,13.27-21.31,1.99-2.42,4.21-4.65,6.33-6.96,3.46.57,1.24,3.46,2.09,5.09-.55,2.61-2.34,4.27-4.35,5.81-2,1.52-3.48,3.51-4.74,5.67-.2.22-.41.43-.65.62.44.5-.1.72-.05.05.05-.66-.08.21.36-.28.5-.57.94-1.17,1.31-1.82,2-3.26,5.03-5.37,8.15-7.37,1.51-.57,2.91-1.3,3.97-2.58.37-.32.78-.57,1.22-.79,2.18-1.11,4.12-2.71,6.74-2.87,3.15-.19,4.54.73,2.95,3.97-4.44,4.43-10.66,6.2-15.31,10.17.07-.05.07-.04.07-.04,0,0,.22-.15.28-.2,5.92-3.99,12.59-6.4,18.7-9.89,2.42-.57,5.44-3.17,7.11-.25,1.52,2.66-1.6,4.66-3.58,6.28-2.54,2.08-5.15,4.14-8.48,4.88-8.24,2.46-15.07,7.02-20.39,13.7.55.23,1.04.02,1.55-.06.45-.08.88-.07,1.32-.01,2.54,1.56,4.75,1.52,7.15-.63,3.1-2.78,6.75-4.82,10.71-6.24,2.29-.82,4.29-2.04,4.53-4.75.32-3.57,2.57-5.66,5.4-7.27,2.13-1.21,3.71-2.54,3.71-5.34,0-2.8,1.94-4.63,4.31-5.63,12.92-5.44,19.42-17.18,27.32-27.57,2.41-3.17.55-4.46-2.28-5.22-6.76-1.81-13.52-3.32-20.64-1.96-3.38.65-6.85,1.48-10.37.78-1.75-1.03-3.29-.57-5.07.26-5.14,2.39-9.43,6.02-13.78,9.01,1.94-1.17,4.06-2.63,6.23-4,1.53-.97,3.14-1.98,4.99-.56.63.82.76,1.74.59,2.73-.94,3.15-3.91,4.72-5.67,7.24,1.37-1.6,3.06-2.73,5-3.54,2.1-.97,4.27-1.8,6.46-2.51,2.46-.8,5.38-1.23,6.44,1.63,1.11,2.98-1.77,4.19-3.93,5.39-1.02.56-2.24.58-3.26,1.15-5.95,2.3-10.09,7.36-15.64,10.28-1.74.31-3.54.83-4.61-1.28-1.19-.23-3.5-.95-2.83-1.77,8.8-10.76-2.7-5.53-6.89-5.62-2.54-.06-1.64-2.64-.83-4.34,3.16-6.57,8.72-10.62,14.75-14.29,10.45-6.35,21.93-9.03,33.93-10.08Z"/>
  <path class="cls-33" d="M182.05,128.02c2.66-2.89,4.5-5.23,6.67-7.19,6.08-5.47,13.7-6.57,19.77-3.08,6.43,3.7,10.68,13.28,9.17,20.68-1.39,6.83-8.09,12.75-15.58,13.51-3.98.4-8.06.56-11.66-1.63-2.76-1.68-3.82-.38-4.52,2.09-1.74,6.12-2.66,12.34-2.15,18.7.45,5.6,3.71,7.76,9.29,6.29,5.34-1.41,10.27-3.78,15.07-6.47,1.3-.73,2.62-1.42,3.98-2.05,3.38-1.56,6.41-.82,8.25,2.27,1.79,3.01,1.43,6.49-1.55,8.51-9.57,6.51-19.63,12.02-31.77,11.26-8.24-.51-14.78-7-16.21-15.78-.19-1.15-.47-2.35-.31-3.47,1.52-10.52-5.89-19.84-3.85-30.5,1.34-7.03,1.16-14.24,1.09-21.4-.03-3.21-.59-6.31-1.7-9.25-1.19-3.16-3.14-3.75-5.46-.88-3.53,4.35-4.54,9.58-4.77,14.92-.43,10.03,1.29,19.87,3.34,29.64,1.15,5.48-.18,9.11-4.06,10.36-3.69,1.19-7.52-1.33-8.88-6.64-2.3-9-4.19-18.12-4.47-27.46-.15-4.84-.92-9.57-1.85-14.3-.34-1.77-.42-3.93-2.66-4.35-2.46-.46-3.59,1.64-4.44,3.35-6.83,13.86-9.98,28.13-4.31,43.25.12.31.23.62.35.93,2.3,5.77,1.53,9.51-2.29,11.13-4.19,1.77-8.25-.74-10.58-6.4-3.85-9.35-4.45-19.37-6.07-29.17-.73-4.41-1.33-8.85-1.88-13.29-.3-2.46-.54-4.92.52-7.36,1.03-2.37,4.67-5.96,5.13-3.96,2.16,9.51,7.36-2.58,9.74-5.85,1.97-2.71,4.07-5.27,6.92-7.11,5.59-3.59,11.62-3.29,16.43,1.28,1.94,1.85,2.45,6.83,4.61-.13,4.14-13.36,21.5-7.98,26.64,5.05,1.47,3.72,2.45,7.56,2.8,11.56.35,3.95.77,7.9,1.26,12.91Z"/>
  <path class="cls-33" d="M3.94,160.76c0-2-.02-3.99-.05-5.99s-.08-4-.13-5.99-.11-3.99-.17-5.99-.11-3.99-.16-5.99c-.02-1.07-.06-2.13-.13-3.18s-.18-2.1-.36-3.15-.42-2.08-.75-3.11-.76-2.05-1.31-3.06c-.49-.9-.75-1.81-.84-2.74s0-1.86.19-2.78.51-1.85.88-2.75.8-1.79,1.23-2.64c1.02-2,2.2-3.85,3.52-5.55s2.78-3.27,4.34-4.73,3.25-2.78,5.02-4.02,3.62-2.38,5.54-3.44c2.79-1.55,5.62-2.89,8.5-4s5.8-1.97,8.78-2.58,6.01-.94,9.11-.99,6.26.2,9.5.77c3.27.58,6.11,1.84,8.52,3.58s4.38,3.96,5.9,6.44,2.49,7.72,2.42,13.18-1.18,11.15-3.84,14.52c-.5,3.7-12.08,9.43-24.07,14.8s-24.37,10.39-26.5,12.68c-2.02,4.79-10.38-14.16,2.22-16.24,31.8-3.92,42.08-21.3,39.75-28.12,0-2.59-1.77-4.88-5.08-6.29s-8.16-1.94-14.33-1.01c-2.15.61-8.53,2.25-14.37,5.02-5.83,2.78-12.17,8.85-10.81,20.86.22,5.53-.37,11.61,4.83,9.53,1.22,8.48-1.73,15.65-2.22,16.24s-.83,1.34-1.07,2.34-.4,2.26-.55,3.85c-.21,2.12-.35,4.24-.43,6.35s-.1,4.22-.08,6.33.1,4.22.21,6.33.26,4.22.44,6.33c.04.49.07.99.08,1.48s0,1-.02,1.5-.07,1-.13,1.49-.15.98-.25,1.46c-.18.85-.45,1.63-.79,2.32s-.78,1.29-1.32,1.77-1.17.86-1.91,1.1-1.59.34-2.56.29c-.93-.05-1.76-.21-2.48-.48s-1.34-.66-1.86-1.15-.94-1.09-1.25-1.79-.54-1.51-.66-2.41c-.06-.45-.12-.91-.18-1.36s-.11-.91-.16-1.36-.09-.91-.11-1.37-.05-.91-.05-1.36c-.01-2.08-.02-4.16-.03-6.24s0-4.16,0-6.24,0-4.16,0-6.24,0-4.16,0-6.24c-.04,0-.05,0-.04,0h.04s.04,0,.04,0,0,0-.04,0Z"/>
  <path class="cls-33" d="M96.89,200.1c-7.46.39-15.88-1.16-22.83-7.72-7.81-7.37-7.61-16.85-7.3-26.39.07-1.99.25-4.02.76-5.93.86-3.29,1.69-8.22-3.45-6.13-2.85,1.16-5.09-2.33-4.99-5.85.11-3.83,2.13-7.13,5.55-7.33,8.47-.49,10.19-6.4,12.1-12.76,2.23-7.44,4.67-14.82,7.27-22.14,1.28-3.62,4.06-5.66,8.1-5.26,3.01.29,4.73,2.13,5.49,5,.46,1.74-.22,3.26-.73,4.84-2.03,6.3-4.02,12.62-6.04,18.93-.71,2.24-1.16,4.19,2.21,4.64,3.26.43,4.94,2.72,5.1,5.86.16,3.15-1.38,6.45-4.44,6.46-9.25.02-11.32,8.17-12.37,16.03-.66,5-.71,9.97-.35,14.92.36,4.97,3.97,7.51,8.46,8.64,10.07,2.55,19.78.08,29.43-2.47,5.65-1.49,10.93-3.95,16.06-6.73,1.17-.63,2.28-1.4,3.5-1.91,3.56-1.49,7.19-2.29,9.77,1.58,2.06,3.09.77,7.29-3.09,9.85-9.97,6.62-21.07,10.37-32.72,12.77-4.61.95-9.24,1-15.52,1.12Z"/>
  <path class="cls-2" d="M240.97,141.97c3.2-2.19-.73-18.07-2.8-20-1.43-1.57-.34-4.77-.15-7.24.02-.25-6.71-1.45-3.64-2.77,3.48-1.51-2.02-7.34-1.25-10.9.07-.32.16-.86,0-.96-6.42-4.18-1.36-8.7-.4-13.09.8-1,1.07-1.99,0-2.99-1.78-.86-1.1-2.71-1.52-4.12-.19-.64-.11-1.35.36-1.84,4.5-4.74,10.19-7.85,15.75-11.15.55-.33,1.46-1.15,1.39-1.28-3.71-6.53,3.22-7.43,5.79-10.24,2.37-2.59,5.6-3.98,6.94-7.93,1.1-3.24,5.24-4.36,8.26-6.04,8.3-4.64,12.51-13.08,18.56-19.8.95-1.06,1.62-2.31,3.12-2.53.19-.03.4-.01.59.02,2.76.52,3.46,1.49,2.11,3.64-4.82,7.68-8.84,15.98-16.15,21.79-.15.12-.33.22-.52.29-2.94,1.15-3.73,3.58-3.8,6.43,0,.26-.05.53-.17.76-.62,1.26-1.61,2.08-3.01,2.44-3.14,1.17-6.89,1.62-6.68,6.42.05,1.13-1.22,1.93-2.14,2.62-3.17,2.38-5.83,5.51-9.33,7.32-5.35,2.76-7.85,7.71-10.7,12.44-.97,1.62-1.27,4.38-.5,6.11,1.44,3.23.1,6.09-1.05,8.25.47-1.13,1.14-3.36,3.02-4.9,2.8-1.57,5.51-4.96,8.61-1.16.34.42.5.97.42,1.5-.44,2.82-3,4.4-4.34,6.71-.11.19-.25.37-.42.51-1.38,1.16-2.67,2.61-.85,4.15,1.73,1.47-.11,5.95,4.28,4.93,1.34-.74,2.72-.96,4.14-.7.56.1,1.04.46,1.32.96,2.09,3.76,4.93,6.87,8.36,9.46.5.38.82.98.76,1.61-.21,2.14-1.75,3.53-3.51,4.5-3.35,1.86-5.62,4.05-4.5,8.27.16.6-.05,1.32-.13,1.98-.17,1.38-.61,2.69-2.13,3.03-1.77.4-2.86-.74-3.53-2.14-1.44-3.03-2.02-6.31-2.5-9.61-.1-.65-.09-1.32-.12-2-.09-2.01-3.02-2.54-3.62-.62-.11.35-.12.7-.03,1.02,1.06,3.6-.06,7.73,1.86,10.81,2.12,3.39,1.47,6.49.25,9.44-2.91,7.02-2.64,8.63,3.77,13.25.05.04.1.07.16.1,1.17.7,2.37,1.35,3.51,2.11,2.29,1.24,2.92,3.19,2.37,5.63-.23,1.66-.65,3.21-2.05,4.23-.24.18-.53.28-.83.31-2.71.28-5.29-.85-8.05-.89-2.46-.03-2.43-2.35-2.52-4.58-.05-1.21-1.23-2.07-2.39-1.73-3.05.89-4.02-.26-3.4-3.72.14-.77.34-1.54.56-2.3.42-1.45-.92-2.74-2.37-2.32-.65.19-1.26.11-1.82-.84-1.28-2.17.36-3.68,1.24-5.44.75-1.51,2.29-4.31,3.16-5.79"/>
  <path class="cls-2" d="M317.6,200.05c-3.38-1.26-5.04-4.22-6.92-6.97-1.73-2.56-3.12-5.25-3.41-7.98-.46,1.38.42,2.88-.89,4.73-1.53,1.89.49,4.37.3,6.46-.16,1.8-.61,3.31-2.71,3.53-1.76.18-2.71-.82-3.3-2.38-.99-2.62-2.06-5.22-4.59-7.66-.89,3.45.03,6.75-1.08,9.8-1.72,4.72-3.46,5.19-6.72,1.51-.53-.6-2.8-9.62-3.59-5.22-1.06,5.93-6.54-.85-6.92-7.95,3.05,1.07,4.74.01,5.28-3.2.3-1.8,1.1-3.43,2.67-4.54.53-.4,1.15-.64,1.67-1.06,2.65-6.47,4.44-6.78,9.27-1.7.65.69.98,1.75,2.12,2.01-.01-3.67-2.55-8.33,3.73-9.49,4.2.5,4.14,5.28,7.1,7.02.57.58,1.05,1.22,1.34,1.99,1.28-4.8,2.64-5.35,6.84-2.79,1.57,2.45,2.76,5.1,4.13,7.67.7,2.29,1.17,4.65,2.04,6.89.86,3.06,1.62,6.15,2.02,9.31-.29-2.07-.98-4.08-.61-6.23.42-1.19.71-2.39.71-3.66.16-3.5.33-6.99-.85-10.37-.66-3.58-2.34-6.93-2.43-10.61-.05-2.15-.14-4.75,2.38-5.44,2.67-.74,3.71,1.73,4.5,3.68,2.06,5.05,3.97,10.16,5.21,15.49,1.14,6.21,5.83,10.35,9,15.37,1.82,3.1,3.17,6.46,5,8.91-1.54-2.89-.06-6.79-1.44-10.24-1.61-9.19-5.07-17.76-8.74-26.26-1.38-3.19-2.74-6.38-3.55-9.76-.41-1.72-1.22-3.88.81-4.91,1.88-.95,3.32.76,4.72,1.9,1.71,1.39,2.41,3.53,3.87,5.11,4.46,6.52,7.81,13.55,9.65,21.26.75,1.46.39,3.28,1.5,4.63,1.63,9.21,1.8,18.45-.53,27.52-1.21,4.71-4.64,5.29-7.97,1.55-4.69-5.26-6.85-12.08-10.57-17.96-.98-.75-5.54-13.55-4.11-1.06-.71,3.2-.24,7.42-1.03,10.59-.52,2.1-1.22,4.43-3.63,4.83-2.16.36-2.86-1.88-3.79-3.37-1.22-1.95-2.3-3.99-3.44-5.99-1.43-1.4-1.24-3.81-3.07-4.97Z"/>
  <path class="cls-2" d="M297.66,23.09c1.02,8.97,2.04,17.95,3.06,26.92,1.24,1.5-.25,3.52.95,5.03,1.44.47,1.45-1.05,2.16-1.58,2.7-2.02,4.3-2.08,4.93,1.9,2.6,16.38,5.86,32.62,10.68,48.52.53,1.75.09,4.28,3.55,2.83,1.94-.81,2.18,1.49,2.58,2.83,2.39,8.11,4.7,16.25,7.11,24.36.37,1.23-.32,4.36,2.89,1.68,1.6-1.34,2.59,1.06,3.18,2.18,5.91,11.12,12.75,21.74,17.9,33.27-1.72.93-3.1,2.19-3.92,4-3.83-3.36-5.77-8.03-8.48-12.17-2.93-4.49-5.42-8.97-9.8-12.74-4.41-3.79-6.6-10.25-8.39-16.17-1.26-4.18-2.37-8.3-6.63-10.61-.99-.53-1.59-1.7-2.11-2.74-7.53-15.08-10.53-31.35-13.03-47.04-.64,1.36-2.26,2.85-4.84,2.37-2.84-.53-4.06-2.73-4.58-5.32-1.24-6.19-1.82-12.49-2-18.78-.21-7.8-1.89-15.53-1.1-23.37.48-4.72,2-6.06,5.87-5.38Z"/>
  <path class="cls-33" d="M39.08,196.25c-10.99-.06-19.84-11.96-16.69-22.73,3.26-11.16,11.92-16.89,22.17-20.29,5.42-1.8,11.91,2.22,14.22,7.58,1.98,4.59.29,9.9-4.44,13.58-4.48,3.49-9.52,4.32-15.06,3.17-1.4-.29-3.69-2.65-4.29.11-.58,2.66.92,5.25,4.26,5.54,1.83.16,3.59-.36,5.31-1.1,1.51-.65,3.11-1.2,4.73-1.47,3.33-.55,6.01.62,7.18,3.9,1.09,3.06-.14,5.65-2.8,7.28-4.45,2.72-9.28,4.4-14.58,4.42Z"/>
  <path class="cls-41" d="M189.75,103.28c-.1-5.1,2.74-8.6,6.95-8.58,4.22.02,7.5,3.61,7.51,8.23.02,5.14-3,8.98-7.2,9.18-4.31.21-7.15-3.25-7.25-8.84Z"/>
  <path class="cls-15" d="M215.89,96.29c4.03.01,7.04,3.25,6.94,7.45-.12,4.79-4.03,9.11-8.18,9.02-3.76-.08-6.58-3.18-6.62-7.3-.06-5.07,3.47-9.18,7.86-9.17Z"/>
  <path class="cls-41" d="M230.61,112.07c1.89,1.25,3.11,3.05,4.06,5.06,3.18,5.01-1.27,6.54-4.04,8.83-7.29,2.3-12.56-2.07-11.05-9.13.87-4.04,3.7-5.26,11.02-4.76Z"/>
  <path class="cls-8" d="M286.71,180.97c-1.52,1.24-1.9,3.06-2.43,4.79q-1.85,6.02-6.5,2.16c-.05-.3-.08-.61-.11-.91-1.57-.99-2.26-2.52-2.62-4.25-.43-5.17-4.08-8.37-7.29-11.83-1.24-1.17-2.43-2.37-2.84-4.11-.08-.75.07-1.45.55-2.06,5.17-1.3,7.86,2.23,10.53,5.57,2.15,2.69,3.18,6.1,5.02,9.03,1.05-.69,1.15-1.58,1.56-2.29,3.76-1.73,4.45-1.08,4.14,3.91Z"/>
  <path class="cls-20" d="M268.48,169.89c4.52,2.82,7.38,6.76,8.18,12.09-6.1,1.78-11.57,1.01-15.95-4.02-1.02-1.61-2.03-3.21-3.05-4.82,3.43-1.67,7.13-2.45,10.83-3.26Z"/>
  <path class="cls-2" d="M260.71,177.97c4.98,2.69,10.77,2.16,15.96,4.02.33,1.67.67,3.34,1.01,5.02-9.48,2.58-15.07-.4-16.96-9.04Z"/>
  <path class="cls-4" d="M221.73,49.06c-1.46-1.45.42-3.58-1.03-5.03,1.11-3.26,4.24-5.04,5.85-7.94,1.39.68,2.76.16,4.14-.05,1.06,2.95-1.55,3.75-2.97,5.13.09-.07.03-.05.11-.11,2.81-1.88,4.86-4.73,8.27-5.57.78-.28,1.59-.42,2.37-.66,1.99-.62,4.43-1.92,5.57.76,1.1,2.57-1.02,4.16-3.05,5.41-.42.26-.91.37-1.37.49-4.93.15-8.31,3.57-12.17,5.91-1.8,1.09-3.29,2.87-5.71,1.65Z"/>
  <path class="cls-44" d="M268.48,169.89c-2.69,4.13-6.55,4.41-10.83,3.26-.98-.73-1.95-1.46-2.93-2.18.34-1.63.68-3.26,1.03-4.9,1.13-.99.77-3.4,3.1-3.24.97,3.71,2.9,3.14,6.61,1.93,1.29.74,2.37,3.88,3.02,5.14Z"/>
  <path class="cls-27" d="M345.64,163.01c2.14,4.14,6.23,7.13,7.1,12.02.47,2.99,3.21,10.72,3,13.87.37,1.09,1.01,3.35.06,3.14-2.6-7.35-8.18-21.37-12.16-28.05.03-1.64.83-1.7,2-.97Z"/>
  <path class="cls-31" d="M345.64,163.01c-.67.32-1.34.65-2,.97-2.56-2.09-3.91-5.36-7.87-7.62,4.09,14.31,11.59,26.63,13.87,40.63-.47.54-.33,1.24-.49,1.86-.45,1.75,1.33,4.54-1.23,5.11-2.29.51-2.68-2.47-3.84-3.97-.41-.52-.84-1.03-1.29-1.5-2.93-4.91-6.3-9.54-9.12-14.52-2.39-6.46-4.27-8.82-7.14-16.56-2.75,6.6-.3,6.95,1.13,11.58-.78,3.98-.78,7.96,0,11.94.01,1.11-.02,2.22-.95,3.04-4.34.95-2.55-3.28-4.03-4.75-.21-1.83-1.61-3.3-1.61-5.19-1.84-2.72-2.42-6.06-4.32-8.75-3.53-4.87-4.91-10.86-8.25-15.83-.8-1.19-.92-2.86-2.88-3.81.63,5.08,2.95,9.37,3.89,13.99.57,2.83,2.02,5.83-.83,8.35-3.21-1.3-3.14-5.41-6-7.02-1.96-1.63-4.04-.57-6.08-.24-1,.5,1.26,5.71.07,5.66-1.01-.04-5.09-5.06-5.99-5.45-2.05-.9-2.67,0-2.57,1.97.15,2.7,1.31,5.33.57,8.09-.66,0-1.32,0-1.97,0-.42-1.07-.75-2.18-1.27-3.19-.65-1.24-1.34-1.42-1.76.19-2.94,0-2.96-2.67-3.82-4.41-2.47-5-6.03-8.53-11.57-10.01-1.75-.47-3.19-.34-4.7.44-1.04.2-2.01.05-2.89-.55-.58-.57-.79-1.28-.75-2.08.12-.75.46-1.4.93-1.98.76-.86,1.57-1.68,2.23-2.63.72-1.22,1.21-2.62,2.49-3.43.95-.39,1.9-.39,2.85-.03,3.45,4.32,9.31,5.51,12.82,9.84-1.55-2.84-3.27-5.52-5.41-7.92-1.42-2.24-3.65-2.68-6.06-2.73-1.43-.03-3.05.62-4.08-1.03-1.24-2.64-1.55-5.37-.79-8.19,6.46-5.06,13.84-5.7,20.93-4.68-.55-.2-1.76-.69-2.74-1.6-3.96-4.37-8.7-3.96-14.08,1.26-1.32,1.5-2.69,2.94-4.72,3.47-3.07-.26-5.95-1.45-9.18-1.29-3.98.2-5.62,2.09-5.87,5.77-.19,2.84.03,5.61,1.2,8.23.82,1.84,1.61,3.66.22,5.58-4.84-1.25-6.2-5.66-8.34-9.32-.74-1.25.29-2.34,1.21-2.95,2.86-1.88,4.32-5.99,3.18-7.54-2.71-3.69-1.43-8.05-3.05-11.23-1.89-3.69-.45-5.66,1.28-7.82,1.03-1.29,3.1-2.64,4.79-2.06,1.88.64.97,2.92.9,4.42-.18,4.09,1.3,7.82,2.1,11.69.21.99.53,2.15,1.72,2.07,1.32-.09,1.21-1.39,1.2-2.33-.01-1.15.03-2.39-.36-3.43-1.19-3.17-.03-5.05,2.91-6.28,2.63-1.11,5.03-2.57,6.47-5.2.89-.92,1.89-.94,2.96-.37,1.67,3.45-.15,6.63-.76,9.9-.98,1.82-2.87,2.58-4.43,3.73-1.38,1.01-.39,1.11.45,1.33,1.01.35,1.85.3,2.71-.47,2.86-2.56,6.34-4.02,9.85-5.44,1.62-.66,3.68-1.1,2.69-3.7-.1-2.86,2-4.43,3.67-6.25,2.55-2.78,5.57-5.14,7.35-8.67-3.25.57-5.33,2.87-7.44,5.03-3.05,3.12-6.02,5.22-10.29,1.68-1.88-1.56-4.49-.82-6.8-.65-2.69.2-4.55-.55-4.97-3.56-.32-2.26-1.22-3.91-3.97-2.59-1.75-.07-3.44.14-5,1.01-1.59-3.06-.54-7.33-4.45-9.41-.72-.38-.21-1.8.47-2.59.78-2.71,2.67-4.51,4.95-5.98,1.45-1.24,2.02-2.18-.57-2.69-1.71-.34-4.01,1.6-5.1-1.24.72-5.85,4.8-9.13,9.42-11.77,2.98-1.7,5.81-3.71,9.11-4.84,1.46-.5,2.81-1.11,2.47-3.08-.3-1.16-.51-2.32,0-3.48,1.74-2.91,4.82-2.33,7.48-2.83,1.52-.29,3.69.05,2.83-2.68-.95-3,.5-4.18,3.22-4.8,2.38-.54,4.08-2.86,7.3-2.49-2.26-3.67-5.75-4.8-8.72-6.58-.91-.74-2.01-1.3-2.44-2.5,6.24-6.19,4.75-5.77,9.9-12.76,1.12-1.51,2.5-4.77,5.12-12.21,5.2-1.78,5.39-1.65,5.96,4.03-1.96,6.28-2.5,8.81-2.89,11.5-1.37,9.35-.36,12.06.22,21.5.27,4.45,1.23,8.85,1.65,13.3.23,2.47.46,5,3.36,5.3,2.7.28,3.36-2.2,4.06-4.28.25-.75.59-1.47,1.27-3.12,1.95,15.58,5.36,29.73,9.87,43.6,1.07,3.3,2.76,6.4,4.25,9.55.42.88,1.27,1.87,1.72,2.33,5.36,5.51,5.31,5.37,6.16,8.91,1.54,6.43,6.17,11.39,7.79,17.72.07.29.44.6.61.74,5.7,4.82,6.98,8.29,9.92,12.85Z"/>
  <path class="cls-31" d="M301.67,55.05c-1.4-1.47-.87-3.31-.95-5.03,1.77-3.33.93-6.76.42-10.19-.74-4.98-1.01-9.94,1.09-14.7,2.12-4.8,5.42-6.28,10.36-5.11,2.61.62,4.15,1.68,4.17,4.62.02,2.85,1.83,3.78,4.41,3.08,5.25-1.44,10.17-.31,15.07,1.59,6.32,2.45,13.39,1.56,19.66,4.86,7.53,3.96,15.3,7.35,20.11,14.88.61.95,1.42,1.88.96,3.36-4,.01-7.54-.61-10.6-3.91-2.45-2.64-4.69-3.43-10.12-1.91,15.66,9.71,25.03,21.07,26.01,39.41-4.78-3.58-8.9-7.72-12.8-12.17-5.11-5.84-9.93-12.17-17.78-14.78q-1.8.02-1,2l2.01,1.96c7.64,12.54,15.31,25.07,21.95,38.18,1.07,2.12,3.15,3.99,2.04,6.78-1.09,3.25,2.13,11.06-.09,8.01-.54-.74-6.17-8.39-6.92-8.98-3.36-.21-5.53-1.87-6.98-4.99-1.01-2.18-2.63-4.08-4.05-6.07-2.9-4.94-6.47-9.33-10.82-13.06-.73-.62-1.89-2-2.08.46-.8,2.21.86,3.53,2,4.77,10.81,11.7,17.03,26,22.89,40.46,1.85,4.55,5.54,8.25,6.03,13.39.96,3.24-.54,2.29-1.5,2.98-11.54-13.57-15.46-31.23-24.31-46.29-1.55,3.27.53,5.65.83,8.34-.79,2.79.81,5.09,1.79,7.4,3.59,8.44,5.1,17.34,6.06,26.35.3,2.84.92,6-1.88,8.25-7.01-9.77-8.96-21.25-10.92-32.7-.67-3.9-.76-7.9-1.22-11.83-.1-.89-.17-2.23-1.4-2.25-.47,0-.96,1.16-1.44,1.8-1.04,2.67-.2,5.46-.53,8.16-.13,1.06.82,2.84-1.47,2.83-1.78-5.7-.86-11.56-.95-17.34-.06-4.01-.32-7.92-2.28-11.8-5.01,12.04-2.01,24.81-2.38,37.27-8.54-19.91-6.51-40.57-4.8-61.33-6.37,9.87-2.86,22.51-10.59,32.46-1.38-6.79-3.16-13.12-3.86-19.57-1.1-10.2-1.46-20.48-2.14-30.72-.03-.5.03-1.04-.14-1.48-.65-1.61-.23-4.16-2.35-4.53-1.68-.3-2.95,1.62-3.67,2.99-2.37,4.51-5.77,8.62-5.85,14.09Z"/>
  <path class="cls-31" d="M238.7,40.09c.74-.29,1.63-.41,2.2-.9,1.03-.89,2.94-1.79,2.02-3.36-.81-1.39-2.29,0-3.47.34-1.23.35-2.49.6-3.73.89-.51-2.96,2.19-3.67,3.68-5.22,1.97-2.07,5.3-2.67,6.29-5.8,1.9-.94,3.8-1.85,5.68-2.83.84-.44,1.95-.91,1.63-2.11-.32-1.23-1.55-.99-2.48-.99-3.56,0-6.45,2.25-9.8,2.97-.69-1.49.29-2.43,1.17-3.37,2.35-2.53-1.67-.47-1.17-1.64,0-.99,0-1.97,0-2.96.9-4.37,4.14-5.63,8.03-6.03,3.6-.48,7.25-.75,10.81-1.49,7.98-1.67,15.5.52,22.95,2.71,3.41,1,4.63,3.25,1.84,6.75-4.55,5.69-8.6,11.77-13.02,17.58-4.04,5.32-10.06,8.05-15.68,11.19-2.82,1.57-4.79,2.89-3.18,6.47,1.17,2.6-1.59,2.31-2.67,3.21-2.43,2.02-7.37,2.66-6.54,6.46.73,3.3-1.1,3.99-2.51,5.5-.55.58-1.3,1.19-2.05,1.34-6.87,1.38-11.45,6.45-17.14,10.44-1.39-1.17-.99-4.35-3.83-4.2-.69-3.01,1.93-3.8,3.56-5.19,4.58-3.9,10.54-5.94,14.43-10.78,4.81-2.07,9.06-4.86,12.78-9.83-2.8.75-4.79,1.28-6.78,1.81-1.29-1.59-3.9.1-4.99-1.99.62-1.36,1.2-2.37-1.32-2.17-2.99.24-4.89,2.68-7.67,3.17-.76-2.24.78-3.25,2.25-4.38,2.75-2.12,6.17-3.17,8.72-5.59Z"/>
  <path class="cls-2" d="M376.65,141.97c-6.13-6.44-8.73-14.81-11.96-22.72-4.64-11.34-11.05-21.45-19.02-30.65-1.45-1.68-2.99-3.32-.98-5.6,2.04-1.07,3.46.06,4.8,1.37,3.54,3.46,6.97,7.03,9.71,11.19,2.72,4.01,5.94,7.73,7.44,12.48,3.54,9.41,7.91,18.52,10.34,28.34.47,1.92,1.32,3.82-.31,5.6Z"/>
  <path class="cls-38" d="M376.5,111.04c-2.97-14.74-14.62-31.05-23.78-44.01-.86-1.22-2.3-3.94-2.06-5.98,5.42,2.24,9.78,9.44,12.94,13.7,6.24,8.4,10.87,17.76,14.3,27.66,1.33,3.85.98,7.32-1.41,8.63Z"/>
  <path class="cls-38" d="M357.65,149c.44-13.15-2.68-25.63-7.08-37.89-1.04-2.9-.93-2.94,1.1-4.11,10.05,17.88,11.94,37.19,10.41,57.14-4.07-4.37-3.04-10.09-4.43-15.14Z"/>
  <path class="cls-38" d="M235.72,59.06c1.52,2.47-.24,3.43-1.96,4.62-5.38,3.74-11.34,6.65-16.03,11.35,0,0,0,0,0,0-1.12,1.1-2.69,1.27-4,1.99-1.08-.94-1.13-2.09-.25-3.06,6.18-6.79,12.9-12.79,22.23-14.89Z"/>
  <path class="cls-12" d="M238.7,40.09c-.27,2.76-2.56,3.57-4.51,4.78-2.35,1.46-5.03,2.56-6.46,5.18,0,0,0,0,0,0-1.41.9-2.6,2.09-4.01,2.98-2.7,2.3-6.05,3.84-8,6.99-1,.27-1.99,2.37-3.01.01,1.83-4.63,6.39-7.01,9.02-10.98,3.93-2.47,7.84-4.97,11.8-7.38,1.56-.95,3.23-1.75,5.16-1.59Z"/>
  <path class="cls-18" d="M248.74,9.07c-2.18,2.67-5.49,3.84-8.03,6.03-5.21,2.41-9.45,6.54-15.03,8.47-1.09-1.72.1-2.96,1.14-3.76,5.63-4.33,11.12-8.87,17.75-11.71,1.75-.75,3.15-1.01,4.17.96Z"/>
  <path class="cls-18" d="M236.72,49.05c1.45,1.21,5.26-3.53,4.99,1.99-5.79,4.36-12.78,6.44-18.98,10.01-2.12.78-2.8.14-1.98-1.99,4.72-4.3,10.45-6.98,15.97-10Z"/>
  <path class="cls-7" d="M245.69,26.03c3.13,1.24,1.06,2.49-.12,3.44-3.22,2.6-6.56,5.07-9.86,7.59-2.99,2.01-5.99,4.02-8.98,6.03-.95.25-1.29-.09-1.04-1.04,1.66-2,3.33-3.99,4.99-5.99,4.9-3.49,8.98-8.2,15-10.02Z"/>
  <path class="cls-40" d="M340.67,115.01c2.47-3.34-.47-7.66,2-11,.18,6.59-.07,13.15.83,19.76.86,6.33,4.86,12.24,2.92,20.21-4.04-10.08-6.34-19.24-5.75-28.98Z"/>
  <path class="cls-32" d="M240.71,18.06c.68-.47,1.34-.98,2.06-1.39.97-.54,2.08-1.63,3.09-.47,1.28,1.46-.31,2.33-1.1,3.29-1.16,1.4-3.23,1.79-4.04,3.59-2.53,1.95-5.07,3.89-7.6,5.84.91-4.97,3.97-8.13,7.6-10.85Z"/>
  <path class="cls-5" d="M366.63,108.03c-2.66-4-5.31-8.01-7.97-12.01.07-.6.41-.93,1-1,3.87,3.55,4.67,9.66,9.99,11.99-1.12,0-2.23.06-3.03,1.02Z"/>
  <path class="cls-28" d="M212.71,60.04c1.01.85,2-.09,3.01-.01-1.3,2.68-4.15,3.42-6.35,5.05.67-2.02,1.48-3.87,3.34-5.03Z"/>
  <path class="cls-6" d="M220.75,59.05c.12,1.2.8,1.85,1.98,1.99-.94,1.54-2.63,2.84-3.9,1.46-1.7-1.83.83-2.5,1.92-3.46Z"/>
  <path class="cls-31" d="M223.72,53.03c.91-1.57,2.06-2.81,4.01-2.98-.9,1.59-2.05,2.83-4.01,2.98Z"/>
  <path class="cls-31" d="M213.73,77.02c1.06-1.22,2.43-1.79,4-1.99-.82,1.69-2.3,2.05-4,1.99Z"/>
  <path class="cls-39" d="M267.71,66.05c.33,1,.67,1.99,1,2.99-.57.34.1-.08-.3.39-2.39,2.8-7.03-.72-8.34,2.15-1.36,2.99-3.05,4.79-5.76,6.18-3.96,2.04-6.27,5.61-8.29,9.4-1.27,2.12-.54,4.91-2.3,6.87-1.73,2.61-3.46,5.22-5.2,7.83-.24-.07-.48-.14-.72-.21.65-2.41,1.25-4.83,1.96-7.21.57-1.93.82-2.99-1.35-4.82-2.87-2.41.69-5.57,1.84-8.03.77-1.65,3.4-2.2,2.29-5.1-.46-1.21,1.5-1.92,2.56-2.69,5.1-3.7,10.17-7.44,15.27-11.16,2.41-1.76,4.35-3.52-.13-5.44,3.13-2.37,6.23-3.43,9.5-4.11.58.61,1.39.92,2,1.46,1.77,1.57,3.6,3.44,3.11,5.89-.55,2.75-3.27,2.76-5.56,3.26-.53.11-5.08-1.01-1.59,2.35Z"/>
  <path class="cls-8" d="M255.71,110c-.69-2.89,1.8-2.49,3.05-2.46,1.88.05,3.1,1.76,2.81,3.49-.68,4.02,1.07,3.66,4.08,3.18,2.93-.46,6.3-1.21,8.5,2.34,1.35,2.18,2.82.61,4.06-.55,2.9-2.73,5.37-5.93,8.92-7.94,1.68-.95,3.6-1.88,4.93-.13,1.16,1.53-.27,3.23-1.36,4.41-3.94,4.28-8,8.44-12.02,12.65-4,3.86-7.99,3.05-9.7-1.99-.35-1.05,0-2.39-1.3-3.02-1,.01-2,.03-3,.04-.36-.34-.66-.77-1.07-1-4.71-2.62-6.29-4.41-7.9-9.03Z"/>
  <path class="cls-8" d="M267.71,66.05c-2.07.21-4.14.42-6.8.7,2.93-5.89,9.14-3.57,12.99-6.25-1.16-2.75-3.72-4.49-4.15-7.4,1.35-.15,2.34-.82,2.97-2.04.9-.94,1.99-1.7,1.99-3.24,0-3.86,2.32-3.66,5-2.77,4.16,1.41,7.69,3.76,10.56,7.1.65.76,1.36,1.53.77,2.62-.43.8-1.42,1.42-2.04.98-2.68-1.87-4.43-.78-6.12,1.43-1.2,1.57-3.18-.28-4.84.94.44.7.83,1.38,1.28,2.02,2.15,3.05,2.14,4.56-2.36,4.66-3.04.07-6.34-.43-9.24,1.24Z"/>
  <path class="cls-42" d="M265.73,154c-.35,1.3-.7,2.61-1.04,3.91-2.74.21-2.58-2.38-3.61-3.8-.57-.79-1.05-1.92-2.18-1.23-1.13.69-.37,1.77.04,2.59.79,1.57,2.53,2.57,2.77,4.5-.33.35-.66.69-.99,1.04-2,2.66-4.55,1.5-7,1-1.01-.67-2.02-1.35-3.02-2.02-.98-3.15-2.56-6.25-2.82-9.45-.92-11.22,2.44-12.89,13.7-11.01,1.1.18,2.11.93,3.16,1.41.91.38,1.51.92,1.03,2.02.88,2.95,1.14,5.96.96,9.01.12.89-.41,1.46-.97,2.02Z"/>
  <path class="cls-36" d="M246.74,99c.21.76.34,2.16.64,2.19,8,.98,3.83,6.02,3.34,9.81-1.22,1.05-2.29,2.35-4.51,2.5.84-3.64.08-6.48-2.44-9.4-2.08-2.41,1.42-3.66,2.98-5.1Z"/>
  <path class="cls-25" d="M243.72,94.04c.33-2.67-.82-5.53.99-8.02,1.44.49,1.08,2.17,2,3.01,1.55,1.62,3.08.31,4.61-.05,1.56-.36,3.14-1.48,4.62.1.6.64.82,1.51.37,2.3-1.05,1.83-2.58,2.47-4.61,1.64-3.25-4.3-5.4.03-7.97,1.02Z"/>
  <path class="cls-16" d="M279.7,45.05c-7.38.05-2.12,3.56-1.33,6.01-2,1.07-3.88-.51-5.66,0-2.54-4.52.39-5.95,3.96-7.02,1.11.02,2.22.05,3.03,1.01Z"/>
  <path class="cls-22" d="M253.7,162.02c2.37-.09,4.8.26,7-1,0,.58,0,1.17.01,1.75-.48.73-1.13.85-1.91.55-1.7.16-1.62,2.3-3.06,2.75.81-2.11-.42-3.18-2.05-4.05Z"/>
  <path class="cls-1" d="M242.54,107.57c.81.25.88.86.55,1.45-.29.51-.72,1.19-1.2,1.3-.86.2-.98-.61-.88-1.25.13-.83.58-1.45,1.53-1.5Z"/>
  <path class="cls-8" d="M308.68,177.98c.34-7.18-2.95-13.47-4.85-20.11-.54-1.9-2.34-4.38.78-5.46,2.36-.82,3.56,1.39,4.32,3.21,2.73,6.54,6.95,12.41,8.76,19.36.67,1.17.8,2.06-1,1.99-2.35-2.19-3.79-1.75-3.95,1.52-.08,1.75.22,3.53.39,5.82-2.15-1.96-3.37-4.09-4.46-6.32Z"/>
  <path class="cls-36" d="M295.69,168.97c2.79-.98,5.42-1.36,6.98,1.99-3.29.58-3.29,2.95-2.64,5.34.67,2.47.7,4.89.52,7.92-2.89-1.61-3.55-4.56-5.49-6.35-1.18-1.09-2.13-3.04-3.99-2.51-2.14.61-1.13,2.79-1.38,4.32-.1.62.04,1.42-1,1.3-.73-2.16-1.32-4.38-2.23-6.45-1.15-2.61-.82-5.11,1.3-6.64,2.26-1.63,3.17,1.39,4.72,2.29.42.24,2.99,4.53,3.4,4.8,1.47,1-.63-3.07-.17-6Z"/>
  <path class="cls-43" d="M342.67,197.96c2.42.93,2.82,3.87,5.25,5.22,1.59-1.82-.12-4.57,1.71-6.18-.79,4.28,1.8,8.66-.1,13.68-3.48-3.83-4.8-8-6.86-11.73-.3-.22-.4-.44-.3-.66.1-.22.2-.33.3-.33Z"/>
  <path class="cls-3" d="M342.67,197.96c0,.33,0,.66,0,.99-3.33-4.8-7.82-8.9-9.02-14.98,4.24,3.87,6.81,8.81,9.02,13.99Z"/>
  <path class="cls-6" d="M323.67,188.97c.45,2.01.65,4.17,3.03,5.01,0,2.45,0,4.9,0,7.36-2.04-3.25-3.64-6.58-4.04-10.35-.66-1.17-.8-2.08,1.01-2.02Z"/>
  <path class="cls-19" d="M316.69,176.96c.33-.66.67-1.33,1-1.99,1.33,3,2.66,6,3.99,8.99-.33.66-.67.66-1.02,0-1.32-2.34-2.65-4.67-3.97-7.01Z"/>
  <path class="cls-9" d="M327.65,190.94c-1.51-3.98-1.51-7.96,0-11.94,0,3.98,0,7.96,0,11.94Z"/>
  <path class="cls-30" d="M320.66,183.97c.34,0,.68,0,1.02,0,.67,1.67,1.33,3.33,2,5-.34.67-.67,1.34-1.01,2.02-1.36-2.14-1.69-4.57-2.01-7.01Z"/>
  <path class="cls-38" d="M263.71,162.96c.62-2.35,2.23-1.82,3.96-1.53,9.42,1.59,13.18,8.59,16,16.53-.35,1.78,1.1,4.64-1.55,5.02-2.03.29-2.89-2.24-3.63-4.14-2.48-6.29-5.64-12-12.92-13.83-1.48.09-2.32-.4-1.86-2.06Z"/>
  <path class="cls-21" d="M263.71,162.96c.62.69,1.24,1.37,1.86,2.06.08.56.17,1.12.25,1.67-.26.4-.43.95-.81,1.19-1.89,1.2-3.99,2.81-6.15,1.27-2.28-1.62.09-3.86-.05-5.83.64-.18,1.27-.36,1.91-.55,1,.06,1.99.12,2.99.19Z"/>
  <path class="cls-23" d="M225.7,42.04c.35.35.69.69,1.04,1.04-.79,1.2-1.52,2.49-3.32,2.5-.43-2.16,1.18-2.68,2.29-3.54Z"/>
  <path class="cls-24" d="M299.7,132.98c-1.51-.77-3.18-1.31-4.06-2.95.01-.66.31-1.62-.11-1.92-3.95-2.82-3.43-7.11-3.85-11.11,1.3-2.04,2.97-3.7,4.99-5.02,3.73.22,7.78-.57,10.34,3.29.45,1.14-.75,2.07-.43,3.24.92-.23.95-1.17,1.45-1.72.9-1.25,2.13-1.84,3.67-1.79,2.58,3.24,2.91,7.09,2.99,11-.68.47-1.75.6-2.1,1.23-2.37,4.15-6.29,4.87-10.53,5.02-.82.03-1.54.56-2.35.73Z"/>
  <path class="cls-38" d="M279.68,143.97c1.55-.01,3.46.18,3.9,1.63,1.63,5.36,6.39,8.75,8.34,13.85.47,1.23,1.4,2.84.11,3.62-1.76,1.08-2.45-.94-3.28-2.05-.89-1.19-1.7-2.44-2.46-3.71-3.08-5.17-6.99-8.66-13.63-7.37-1.58.31-3.41.24-3.96-1.96.14-4.16,3.98-2.7,6.03-3.98h-.01c1.65-.8,3.31-.74,4.97-.03Z"/>
  <path class="cls-8" d="M246.71,89.03c-3.15.65-1.56-1.86-2-3.01,2.57-5,6.03-9.09,11.43-11.23,1.57-.62,2.24-1.38,1.21-3.38-1.48-2.88.67-3.68,2.95-3.15,2.8.66,5.57.82,8.4.78,1.11,2.22,1.4,4.03-1.69,4.93-8.6,2.51-16.01,6.7-20.3,15.06Z"/>
  <path class="cls-38" d="M267.69,119.99c1.36-1.05,2.81-.99,2.84.85.1,6.79,4.21,5.21,8.16,4.16,1.31.24,3.01.4,3.25,1.8.28,1.62-1.59,1.93-2.72,2.38-4.9,1.96-9.85,3.74-13.91,7.36-1.68,1.5-2.67.59-2.6-1.53-1.03-2.9,2.21-3.24,3.02-5.04-.24-3.5-.05-6.92,1.96-9.98Z"/>
  <path class="cls-38" d="M265.75,142.97c-.34-.67-.69-1.34-1.03-2.02.13-1.97,2.36-2.33,2.99-3.91,2.47-1.73,5.16-2.88,8.11-3.59,3.22-.77,5.89-.3,7.88,2.53,2.45,1.31,5.63.95,7.63,3.27.39.45.73,1.16.68,1.7-.08.81-.95.94-1.55.69-8.46-3.62-16.54-.39-24.7,1.32Z"/>
  <path class="cls-26" d="M299.7,132.98c.51-3.31,3.06-3.02,5.38-2.96,2.54.07,4.28-.21,4.85-3.46.7-3.98,3.01-1.45,4.75-.56.78,3.15,2.4,6.86-1.28,8.85-4.71,2.54-9.47,1.31-13.69-1.87Z"/>
  <path class="cls-38" d="M276.7,154c3.88,2.27,4.65,7.12,8.1,9.77.67.51.92,1.49.43,2.26-.67,1.04-1.75.83-2.63.32-1.13-.65-2.33-1.32-3.22-2.26-2.54-2.69-5.33-4.96-8.93-6.02-2.3-.68-2.89-1.98-1.75-4.08,2.67-3.8,5.34-1.58,8,.02Z"/>
  <path class="cls-14" d="M291.68,117c2.31.03,3.84,1.25,2.53,3.35-1.95,3.12,0,3.93,2.11,5.1,1.15.64,2.26,1.6,2.06,3.1-.21,1.52-1.61,1.36-2.73,1.49-2.93-.27-5.06-2.66-8.26-2.7-2.75-.03-1.93-2.77-1.02-4.05,1.57-2.22,2.76-4.86,5.32-6.28Z"/>
  <path class="cls-13" d="M311.69,115c-.63,1.27-1.65,1.93-3.06,2.03-1.08.47-1.6-.11-1.95-1.04-2.67-3.01-7.6-.39-10.02-4.01,5.98-4.91,11.3-3.84,15.03,3.02Z"/>
  <path class="cls-22" d="M261.7,159.98c-2.77-.48-4.23-2.47-5.31-4.77-.93-1.98-1.1-4.06,1.42-4.93,2.05-.71,3.97-.29,4.84,2.11.67,1.84,1.36,3.68,2.03,5.52-.21,1.83-1.52,2.07-2.99,2.06Z"/>
  <path class="cls-27" d="M265.73,129.97c.53,2.6-2.51,3.07-3.02,5.04-1.27.52-1.11,4.09-3.39,2.04-1.48-1.33-.16-3.17,1.24-4.2,1.59-1.16,3.08-2.59,5.17-2.88Z"/>
  <path class="cls-35" d="M283.69,135.99c-5.62-4.09-10.75-.65-15.99,1.05,2.9-3.79,7.23-4.45,11.46-4.79,2.12-.17,4.17,1.09,4.52,3.74Z"/>
  <path class="cls-34" d="M276.7,154c-2.67-.72-5.33-1.71-8-.02-.99,0-1.98.01-2.96.02.32-.67.65-1.35.97-2.02,3.7-1.18,7.4-2.31,9.99,2.02Z"/>
  <path class="cls-11" d="M274.72,143.99c-1.79,1.66-4.8,1.46-6.03,3.98-1.11-6.05,3.75-3.06,6.03-3.98Z"/>
  <path class="cls-11" d="M279.68,143.97c-1.66.01-3.32.02-4.97.03,1.65-1.38,3.31-1.38,4.97-.03Z"/>
  <path class="cls-36" d="M359.67,95.02c-.33.33-.67.67-1,1-4.36-4.66-8.18-9.9-13.98-13.02-.4-1.49-2.6-3.06-1.02-4.36,1.65-1.35,2.89.85,3.99,1.92,4.51,4.39,9.15,8.69,12.01,14.45Z"/>
  <path class="cls-17" d="M249.72,147.26c-.02-3.38,1.87-5.75,4.66-7,2.7-1.21,4.69.86,6.43,2.68,1.01,1.05,1.13,2.44.59,3.73-.53,1.25-1.65.71-2.6.53-2.13-.4-3.38.45-4.21,2.5-.54,1.34-.18,4.02-2.53,3.51-2.3-.49-2.37-2.9-2.34-4.96,0-.33,0-.66,0-1Z"/>
  <path class="cls-37" d="M306.69,115.99c.65.35,1.3.69,1.95,1.04.45,1.94,1.21,4.05-1.57,4.86-1.43.42-2.72-.19-3.16-1.65-.71-2.39.4-3.79,2.79-4.25Z"/>
  <path class="cls-29" d="M301.25,121.82c.02.98-.51,1.58-1.38,1.73-.92.17-1.66-.38-1.81-1.23-.2-1.1.4-1.89,1.57-1.96.97-.06,1.4.63,1.61,1.45Z"/>
</svg>