<?xml version="1.0" encoding="UTF-8"?>
<svg id="Layer_1" xmlns="http://www.w3.org/2000/svg" viewBox="0 0 500 498.77">
  <defs>
    <style>
      .cls-1 {
        fill: #fff;
      }
    </style>
  </defs>
  <path class="cls-1" d="M500,498.77H0V0h500v498.77ZM375.74,356.29c25.44-9.44,54.09-17.35,77.96-29.45,69.95-35.46,43.47-95.15-13.61-117.65-73.44-28.95-148.1-17.28-206.09,25.63-23.01,17.03-52.25,30.4-79.63,44.6-4.47,2.32-17.29,2.15-20.41-.25-3.81-2.94-3.04-9.71-1.28-14.31,1.35-3.53,6.73-6.75,11.33-9.3,33.46-18.54,67.04-37,100.87-55.24,20.19-10.89,34.39-24.28,31.98-41.96-2.44-17.88,6.9-31.72,23.78-44.62,11.75-8.98,16.08-19.22,13.23-31.79-5.21-23-15.44-44.39-33.09-64.51-11.67-13.3-36.58-19.09-55.45-9.98-10.58,5.11-20.2,12.15-26.75,19.68-10.71,12.3-18.21,25.83-27.69,38.64-15.93,21.52-16.6,41.39,6.82,61.61,18.01,15.55,11.93,29.8-13.97,39.9-17.42,6.79-36.04,12.21-54.08,18.3-31.29,10.57-56.63,25.51-76.19,45.04-38.65,38.58-22.53,93.18,29.98,115.88,16.31,7.05,35.19,11.45,50.11,16.18-6.37,16.28-15.62,32.53-18.64,49.27-5.09,28.15,21.23,59.86,53.84,66.76,53.82,11.4,103.16,6.12,143.8-21.67,14.03-9.6,25.87-20.64,38.5-31.14,10.11-8.4,21.93-13.15,38.1-7.99,15.39,4.91,17.45,13.57,14.76,23.84-5.88,22.51-30.61,33.37-58.08,42.56-7.63,2.55-15.78,4.41-26.02,7.22,51.12,12.8,104.07-2.03,130.32-34.69,29.87-37.16,13-67.4-54.4-100.55Z"/>
  <path d="M375.74,356.29c67.4,33.15,84.27,63.4,54.4,100.55-26.25,32.65-79.2,47.49-130.32,34.69,10.23-2.81,18.39-4.67,26.02-7.22,27.46-9.19,52.2-20.04,58.08-42.56,2.68-10.27.63-18.93-14.76-23.84-16.17-5.16-27.98-.41-38.1,7.99-12.63,10.49-24.47,21.54-38.5,31.14-40.64,27.79-89.98,33.07-143.8,21.67-32.6-6.9-58.93-38.61-53.84-66.76,3.03-16.75,12.27-32.99,18.64-49.27-14.91-4.73-33.8-9.12-50.11-16.18-52.5-22.7-68.62-77.29-29.98-115.88,19.57-19.53,44.9-34.48,76.19-45.04,18.04-6.09,36.66-11.51,54.08-18.3,25.91-10.1,31.98-24.35,13.97-39.9-23.41-20.22-22.75-40.09-6.82-61.61,9.48-12.8,16.98-26.33,27.69-38.64,6.55-7.53,16.18-14.57,26.75-19.68,18.87-9.11,43.78-3.32,55.45,9.98,17.65,20.12,27.88,41.51,33.09,64.51,2.85,12.57-1.48,22.8-13.23,31.79-16.87,12.9-26.22,26.74-23.78,44.62,2.41,17.68-11.79,31.07-31.98,41.96-33.83,18.24-67.41,36.7-100.87,55.24-4.6,2.55-9.97,5.77-11.33,9.3-1.76,4.6-2.54,11.37,1.28,14.31,3.11,2.4,15.93,2.57,20.41.25,27.38-14.2,56.61-27.57,79.63-44.6,57.99-42.91,132.65-54.58,206.09-25.63,57.08,22.5,83.55,82.2,13.61,117.65-23.88,12.1-52.52,20.01-77.96,29.45ZM266.49,313.73c25.58.84,84.96-14.99,98.8-27.43,4.16-3.74,6.33-10.15,4.57-14.45-.98-2.37-12.09-4.22-18.5-4.04-29.94.85-69.11,20.34-84.87,45.92ZM277.73,374.31c-36.97,1.22-71.74,16.49-74.5,32.4,33.42-1.82,54.23-15.66,74.5-32.4Z"/>
  <path class="cls-1" d="M266.49,313.73c15.76-25.59,54.93-45.07,84.87-45.92,6.4-.18,17.52,1.67,18.5,4.04,1.77,4.3-.41,10.72-4.57,14.45-13.84,12.44-73.22,28.28-98.8,27.43Z"/>
  <path class="cls-1" d="M277.73,374.31c-20.27,16.75-41.09,30.59-74.5,32.4,2.76-15.92,37.53-31.19,74.5-32.4Z"/>
</svg>