<?xml version="1.0" encoding="UTF-8"?>
<svg id="SNAKE" xmlns="http://www.w3.org/2000/svg" viewBox="0 0 503.43 500.69">
  <path d="M367.6,358.15c62.97,30.97,79.44,63.47,53.49,101.36-21.23,30.98-67.64,48.74-117.77,35.59,9.15-2.78,16.56-4.64,23.48-7.21,25.32-9.42,47.74-20.78,52.35-44,1.87-9.42-.42-17.37-12.44-22.02-14-5.41-25.31-1.79-34.68,6.79-11.79,10.79-22.65,22.27-35.69,32.15-36.65,27.76-81.11,33-129.49,21.44-29.19-6.97-52.74-39-48.02-67.11,2.81-16.78,11.14-33.05,16.8-48.99-13.7-4.87-30.77-9.35-45.52-16.47-46.13-22.28-60.95-75.92-28.05-114.1,17.42-20.22,40.46-35.59,69.04-46.5,16.68-6.36,33.98-11.9,50.11-18.94,23.06-10.06,28.06-24.32,11.75-40.12-20.49-19.85-20.32-39.44-6.24-60.66,8.52-12.84,15.42-26.32,24.86-38.75,5.53-7.28,13.45-14.2,22.35-19.3,18.2-10.42,41.11-5.12,52.45,9.43,15.48,19.85,24.5,40.89,29.29,63.49,2.76,13.03-1.22,23.59-12.23,32.97-14.77,12.58-23.13,26.12-20.92,43.59,2.24,17.7-9.96,31.31-28.15,42.27-30.83,18.58-61.56,37.26-91.96,56.23-4.83,3.01-9.31,7.38-11.03,11.76-1.43,3.64-.39,9.67,2.91,11.95,3.07,2.12,12.44,2.46,15.84.51,25.09-14.45,53.11-27.33,73.19-45.1,48.65-43.03,123.77-54.7,186.93-25.73,50.5,23.16,73.18,81.53,12.04,117.49-10.72,6.31-22.72,11.65-34.95,16.23-12.21,4.57-25.46,7.62-39.73,11.77ZM269.96,317.48c34.81.64,59.42-12.24,84.92-23.09,9.76-4.15,17.34-11.63,11.15-19.08-3.01-3.61-16.78-4.54-24.66-3.25-33.03,5.41-52.07,23.72-71.41,45.41ZM212.86,410.68c33.26-2.53,52.47-15.74,67.78-33.18-25.26,6.76-54.97,8.49-67.78,33.18Z"/>
</svg>