<?xml version="1.0" encoding="UTF-8"?>
<svg id="rodent" xmlns="http://www.w3.org/2000/svg" viewBox="0 0 503.43 500.69">
  <path d="M131.13,417.61c-51.81-23.31-80.08-60.79-81.07-117.15-35.4-10.14-43.12-28.79-36.33-65.99,6.45-35.32,28.3-54.85,56.41-71.42,9.61-5.66,18.53-12.5,27.6-18.69,0-11.71,1.52-23.7-.32-35.15-3.55-22.09,1.63-42.18,10.89-61.61,3.92-8.24,10.27-15.1,20.55-14.48,6.88.41,16.35,13.13,17.36,21.75.44,3.72.82,7.45,1.67,15.18,6.34-8.48,10.55-14.14,14.79-19.78,4.42-5.87,8-12.85,13.61-17.21,4.48-3.48,12.06-6.06,17.14-4.74,4.05,1.05,8.23,8.23,9.24,13.31,9.01,45.14,2.88,87.34-26.21,124.66-6.07,7.79-11.68,15.95-17.94,24.56,8.14,9.34,14.1,21.27,28.04,23.64,3.92.67,9.86.71,12.05-1.61,8.53-9.03,19.59-10.53,30.66-12.64,30.84-5.89,60.39-4.96,88.47,12.05,10.79,6.54,24.05,8.93,35.96,13.75,43.72,17.68,73.95,48.01,87.48,93.8.84,2.83,2.04,5.57,3.22,8.29.36.83,1.23,1.43,1.88,2.13,26.75-10.3,50.24,6.25,51.43,35.43.89,21.92-6.4,41.01-19.59,57.51-8.81,11.02-22.17,14.39-36.03,12.11-15.02,21.47-36.45,30.32-60.04,36.46-11.63,3.03-22.32,6.45-34.05.59-3.09-1.55-8.01-.79-11.66.31-30.46,9.15-57.25,2.85-83.27-15.27-16.25-11.32-35.41-18.47-51.75-26.74-13.94,14.52-26.52,28.41-40.06,41.29-5.01,4.77-12.09,9.64-18.59,10.17-18.17,1.5-36.24-.04-51.05-13.18-8.89-7.89-9.98-14.33-.53-21.58,7.25-5.55,16.38-8.83,24.95-12.45,8.19-3.46,15.3-7.28,15.07-17.29Z"/>
</svg>